<svg xmlns="http://www.w3.org/2000/svg" viewBox="0 0 50 50"><defs><style>.cls-1{fill:#f2f2f2;}.cls-2{fill:#fbbc05;}.cls-3{fill:#ea4335;}.cls-4{fill:#34a853;}.cls-5{fill:#4285f4;}</style></defs><g id="레이어_2" data-name="레이어 2"><g id="레이어_1-2" data-name="레이어 1"><rect class="cls-1" width="50" height="50" rx="4"/><path class="cls-2" d="M18.2,25a7.12,7.12,0,0,1,.36-2.22l-4-3.07a12,12,0,0,0,0,10.58l4-3.08A7,7,0,0,1,18.2,25Z"/><path class="cls-3" d="M25.27,17.88a6.93,6.93,0,0,1,4.41,1.58L33.16,16a11.94,11.94,0,0,0-18.62,3.68l4,3.07A7.05,7.05,0,0,1,25.27,17.88Z"/><path class="cls-4" d="M25.27,32a7,7,0,0,1-6.71-4.86l-4,3.08a11.93,11.93,0,0,0,10.73,6.68,11.4,11.4,0,0,0,7.79-3l-3.83-3A7.32,7.32,0,0,1,25.27,32Z"/><path class="cls-5" d="M36.42,22.78H25.27V27.4h6.42A5.39,5.39,0,0,1,29.23,31l3.83,3a11.89,11.89,0,0,0,3.63-9A10.07,10.07,0,0,0,36.42,22.78Z"/></g></g></svg>