<?xml version="1.0" encoding="utf-8"?>
<!-- Generator: Adobe Illustrator 16.0.0, SVG Export Plug-In . SVG Version: 6.00 Build 0)  -->
<!DOCTYPE svg PUBLIC "-//W3C//DTD SVG 1.1//EN" "http://www.w3.org/Graphics/SVG/1.1/DTD/svg11.dtd">
<svg version="1.1" id="Layer_1" xmlns="http://www.w3.org/2000/svg" xmlns:xlink="http://www.w3.org/1999/xlink" x="0px" y="0px"
	 width="3000px" height="3000px" viewBox="0 0 3000 3000" enable-background="new 0 0 3000 3000" xml:space="preserve">
<g>
	<path fill="#F18E44" d="M2544.696,2347.611c-115.14-370.65-201.638-554.623-308.831-902.92
		c-114.206-370.955-156.569-770.248-350.127-1106.673c-92.481,192.405-173.529,448.249-221.285,656.328l-182.314,22.287
		c-65.211-220.971-211.242-437.301-353.175-618.787c-15.398,3.297-23.001,20.353-27.956,35.303
		c-68.28,205.754-84.573,428.525-46.937,641.987l-1.277,76.731c-2.973,135.616-26.222,264.314-29.195,399.96
		c-0.724,33.501-1.582,67.688-13.092,99.17c-21.4,58.484-75.521,97.836-128.136,131.205
		c-141.19,89.565-297.74,167.05-395.767,302.542c205.144,92.043,423.952,153.52,647.009,181.818
		c18.752,2.382,36.817,8.881,52.253,19.781c0.438,0.323,0.896,0.628,1.315,0.934c55.607,39.656,81.848,108.851,67.803,175.663
		l-57.093,344.258C1197.892,2807.199,1941.518,3035.478,2544.696,2347.611"/>
	<path fill="#FFFFFF" d="M1197.892,2807.199l70.509-450.44c-8.003-38.057-28.146-78.399-64.106-87.051
		c-25.345-6.099-56.274-8.899-82.134-12.463c-215.035-29.5-425.838-89.89-623.855-178.713c1.41-1.981,3.125-3.659,4.555-5.622
		c291.299-21.896,711.858-75.54,972.133-136.616c97.321-22.829,196.035-48.708,295.739-41.486
		c99.685,7.223,202.818,54.464,248.364,143.439c23.211,45.316,53.835,604.97,57.589,655.736c0,0-583.779,255.511-947.055,88.347"/>
	<path fill="#FCE7D7" d="M600.43,2088.728c219.684-13.549,438.32-41.104,654.574-82.172
		c109.366-20.753,216.997-48.785,326.039-70.891c91.186-18.484,190.871-27.766,278.569,10.31
		c40.99,17.799,79.122,44.307,104.087,82.02c29.861,45.146,55.474,581.531,59.514,634.317c3.277,42.61,69.861,40.419,66.564-2.401
		c-4.154-54.292-30.49-590.62-54.35-640.129c-18.98-39.371-48.785-72.358-84.059-97.837
		c-80.113-57.875-180.561-74.683-277.482-66.869c-116.093,9.356-229.479,44.974-343.114,68.794
		c-112.625,23.63-226.011,43.335-339.989,59.151c-130.366,18.065-261.399,31.024-392.775,39.143
		C555.304,2024.793,557.571,2091.377,600.43,2088.728"/>
	<path fill="#040000" d="M1594.936,1524.481c13.605,66.546,7.184,121.391-2.039,188.66c-3.393,24.697-14.273,54.883-39.086,56.674
		c-30.014,2.173-42.344-37.465-44.478-67.574c-2.592-36.398-5.164-72.815-7.737-109.204c-1.219-17.112-2.363-34.797,3.278-51.014
		c5.641-16.198,18.256-45.822,35.388-46.108c17.113-0.295,31.119-1.134,46.041,14.541"/>
	<path fill="#040000" d="M1388.438,1531.971c13.606,66.546,7.184,121.371-2.058,188.66c-3.392,24.717-14.254,54.863-39.085,56.674
		c-30.014,2.191-42.344-37.484-44.459-67.594c-2.592-36.379-5.184-72.796-7.756-109.193c-1.201-17.104-2.363-34.808,3.277-51.006
		c5.641-16.207,18.275-45.812,35.407-46.107c17.113-0.295,31.101-1.133,46.021,14.541"/>
	<path fill="#EF8EAD" d="M1565.321,2050.404c17.741,44.44,47.908,83.888,86.212,112.625c18.009,13.549,38.266,24.945,60.485,28.661
		c69.899,11.663,132.101-61.21,131.986-132.081c-0.114-70.853-83.982-150.509-135.035-199.656"/>
	<path fill="#040000" d="M1841.546,1958.419c-30.28-45.679-69.671-84.249-108.965-122.058c-0.553-0.553-1.125-0.857-1.696-1.354
		c14.769-29.823,27.67-60.58,37.789-92.404c5.47-17.151-6.422-36.398-23.306-41.049c-18.028-4.954-35.579,6.061-41.067,23.326
		c-48.956,153.71-161.333,283.275-305.763,355.652c-16.122,8.061-20.657,30.814-11.987,45.679
		c9.605,16.389,29.519,20.086,45.679,11.968c37.618-18.848,73.101-41.448,106.183-67.079
		c42.021,91.167,142.144,192.853,248.155,140.256c43.849-21.763,76.722-68.508,86.765-115.901
		C1883.852,2045.907,1869.045,1999.829,1841.546,1958.419 M1770.979,2142.238c-3.049,2.611-3.525,2.954-8.365,6.003
		c-3.164,1.981-6.403,3.812-9.738,5.45c-3.659,1.83-3.125,1.601-9.147,3.335c-1.677,0.495-9.643,1.963-9.795,2.191
		c-17.246,1.506-32.091-3.468-48.746-13.568c-38.742-23.516-70.529-62.276-87.68-104.125c-2.135-5.184-5.164-9.814-8.785-13.683
		c12.139-11.51,23.936-23.325,35.197-35.674c7.395,10.005,15.074,19.857,22.964,29.385c11.948,14.483,24.468,29.005,40.133,39.6
		c6.898,4.669,17.913,5.508,25.727,3.354c7.736-2.115,16.122-8.118,19.952-15.321c4.097-7.756,6.155-17.151,3.354-25.727
		c-2.648-8.214-7.527-14.254-14.502-19.209c1.258,0.99,2.496,1.943,3.754,2.916c-7.68-5.927-14.292-13.245-20.676-20.486
		c-6.956-7.852-13.512-16.026-19.972-24.259c-4.974-6.518-9.947-13.035-14.444-19.876c-0.801-1.239-1.716-2.325-2.63-3.469
		c10.538-14.216,20.447-28.852,29.861-43.83c24.164,23.421,48.004,47.261,69.252,73.406c11.396,13.949,22.01,29.595,30.585,45.831
		c4.46,8.403,5.794,11.033,8.614,19.742c1.486,4.555,2.648,9.167,3.697,13.797c0,0.02,0.285,1.448,0.476,2.459
		c0.076,1.524,0.496,5.831,0.496,5.735C1811.799,2088.137,1796.459,2120.323,1770.979,2142.238"/>
	<path fill="#D8640F" d="M1500.605,112.932c-762.587,0-1383.012,620.435-1383.012,1383.012
		c0,762.597,620.425,1382.964,1383.012,1382.964s1382.974-620.367,1382.974-1382.964
		C2883.579,733.367,2263.192,112.932,1500.605,112.932 M206.625,1495.944c0-713.526,580.482-1293.99,1293.98-1293.99
		s1293.961,580.463,1293.961,1293.99c0,277.302-87.984,534.299-237.084,745.141c-43.22-194.605-76.474-274.453-121.219-381.703
		c-23.077-55.341-49.28-118.036-82-208.174c-48.328-133.092-90.138-271.643-127.756-423.495
		c-10.348-41.782-20.371-83.659-30.395-125.535c-23.611-98.389-47.966-200.142-76.265-299.227
		c-52.272-183.029-110.585-327.659-183.534-455.205c-7.68-13.463-22.734-21.543-39.39-20.819
		c-16.617,0.601-31.101,9.643-37.771,23.63c-94.044,196.311-166.459,402.751-215.129,613.574c-0.458,2.029-0.782,4.021-0.991,6.05
		c-40.553,5.136-77.503,11.187-112.377,18.38c-71.824-226.401-220.961-417.148-352.756-585.704
		c-13.092-16.684-32.358-23.42-50.367-17.627c-34.168,11.205-48.175,39.809-57.379,66.308
		c-8.747,25.173-16.789,52.615-26.069,88.965c-15.817,61.839-27.213,125.65-33.94,189.699
		c-13.473,128.013-9.014,258.093,13.244,386.61c0.629,3.535,1.792,6.927,3.544,10.129c-3.906,6.517-6.021,14.025-6.193,22.125
		l-8.861,406.982c-0.61,32.653-1.238,66.422-15.626,94.893c-25.498,50.423-80.953,83.524-129.852,112.738
		c-6.994,4.174-13.912,8.289-20.62,12.406l-35.502,21.591c-48.975,29.651-99.608,60.352-147.326,94.14
		c-76.493,54.12-134.406,108.736-177.055,166.859c-9.243,12.596-12.673,29.118-8.976,43.105
		c3.087,11.587,10.919,20.677,22.048,25.65c134.463,60.028,273.024,107.402,411.889,140.676
		c69.709,16.75,140.904,30.338,211.642,40.419c4.498,0.629,9.205,1.162,14.045,1.734c22.353,2.591,47.661,5.526,61.572,20.276
		c16.064,17.036,21.305,44.63,25.936,68.965l0.743,3.393c2.153,112.186-12.444,223.591-43.354,331.107
		c-1.543,5.355-1.753,10.596-1.296,15.665C621.144,2606.724,206.625,2098.847,206.625,1495.944 M1500.605,2789.896
		c-82.706,0-163.543-8.118-241.98-23.021c1.792-3.087,3.24-6.479,4.288-10.157c33.482-116.454,49.109-236.797,46.422-357.729
		c-0.057-3.24-0.495-6.518-0.972-8.004c-0.229-2.688-0.572-5.432-1.125-8.309c-10.9-57.037-35.369-135.073-121.581-154.016
		c-21.858-4.821-44.345-7.852-66.069-10.786c-14.273-1.925-28.509-3.83-42.592-6.27c-36.303-6.251-72.796-13.435-108.432-21.362
		c-128.346-28.547-255.129-68.756-377.092-119.561c75.617-82.173,173.854-141.801,268.984-199.504l42.439-25.821
		c61.076-37.275,124.268-75.77,163.543-138.198c37.465-59.533,36.836-135.846,36.265-203.172
		c-0.114-15.512-0.267-30.748,0.076-45.45l6.765-311.441c0.172-7.938-1.563-15.255-5.05-21.582c4.84-9.48,6.403-20.762,4.364-32.529
		c-18.618-107.479-23.02-218.941-13.073-331.289c4.65-52.663,13.358-107.66,25.841-163.429c5.774-25.755,12.444-51.71,19.8-77.113
		c1.467-5.079,2.992-10.147,4.535-15.207c123.487,159.256,237.884,318.55,298.064,503.694
		c-54.369,14.75-106.965,32.196-156.512,51.929c-15.474,6.165-25.727,19.028-28.07,35.265c-2.458,16.932,4.059,34.282,16.598,44.154
		c11.186,8.842,25.269,10.539,39.752,4.802c195.788-77.979,401.865-110.395,612.516-96.007c10.501,0.41,21.077-3.373,29.442-11.51
		c9.396-9.081,14.96-22.287,14.503-34.464c-0.858-23.478-19.286-41.058-44.859-42.792c-61.152-4.145-125.412-4.04-191.271,0.248
		c40.248-167.936,95.816-332.575,165.316-489.954c101.571,205.497,156.168,433.442,208.993,654.107
		c6.213,25.879,12.406,51.729,18.656,77.532c41.105,169.318,78.171,298.359,120.209,418.416
		c26.927,76.95,56.369,154.415,84.859,229.308c23.878,62.772,48.575,127.736,71.634,191.995
		c9.947,27.728,16.712,46.27,21.477,59.285c11.033,30.147,11.033,30.147,15.055,47.756c4.173,18.18,11.91,52.005,37.236,146.487
		c3.125,11.587,8.176,20.81,14.636,27.575C2256.637,2608.4,1899.479,2789.896,1500.605,2789.896"/>
	<path fill="#040000" d="M480.049,2121.295c103.687,47.223,209.984,88.042,318.017,122.992
		c5.926-148.032,6.898-296.254,1.639-444.362c-122.572,79.009-241.199,163.258-329.736,278.836
		C459.049,2093.016,463.66,2113.863,480.049,2121.295"/>
</g>
</svg>
